<svg width="438" height="215" viewBox="0 0 438 215" fill="none" xmlns="http://www.w3.org/2000/svg">
<rect width="200" height="35" transform="matrix(-0.707107 0.707107 0.707107 0.707107 413.121 48.8299)" fill="#4BFF2A"/>
<rect x="261.421" y="215" width="200" height="35" transform="rotate(-90 261.421 215)" fill="#4BFF2A"/>
<rect x="201.421" y="215" width="200" height="35" transform="rotate(-90 201.421 215)" fill="#4BFF2A"/>
<rect x="141.421" y="215" width="200" height="35" transform="rotate(-135 141.421 215)" fill="#4BFF2A"/>
<rect x="141.421" y="215" width="200" height="35" transform="rotate(-90 141.421 215)" fill="#4BFF2A"/>
<rect x="151.421" y="200" width="200" height="35" transform="rotate(-135 151.421 200)" fill="#2A2AFF"/>
<rect width="200" height="35" transform="matrix(-0.707107 0.707107 0.707107 0.707107 403.121 33.8299)" fill="#2A2AFF"/>
<rect x="151.421" y="200" width="200" height="35" transform="rotate(-90 151.421 200)" fill="#2A2AFF"/>
<rect x="201.421" y="200" width="200" height="35" transform="rotate(-90 201.421 200)" fill="#2A2AFF"/>
<rect x="251.421" y="200" width="200" height="35" transform="rotate(-90 251.421 200)" fill="#2A2AFF"/>
</svg>
