<?xml version="1.0" standalone="no"?>
<!DOCTYPE svg PUBLIC "-//W3C//DTD SVG 20010904//EN"
 "http://www.w3.org/TR/2001/REC-SVG-20010904/DTD/svg10.dtd">
<svg version="1.0" xmlns="http://www.w3.org/2000/svg"
 width="250.000000pt" height="250.000000pt" viewBox="0 0 250.000000 250.000000"
 preserveAspectRatio="xMidYMid meet">

<g transform="translate(0.000000,250.000000) scale(0.100000,-0.100000)"
fill="#000000" stroke="none">
<path d="M759 2186 c-71 -25 -113 -70 -135 -143 -22 -72 -5 -116 126 -343 65
-113 122 -213 126 -222 6 -17 -10 -18 -247 -18 -147 0 -270 -5 -292 -11 -81
-22 -147 -111 -147 -199 0 -88 66 -177 147 -199 22 -6 145 -11 292 -11 237 0
253 -1 246 -17 -3 -10 -59 -110 -124 -223 -128 -222 -134 -234 -133 -292 1
-62 20 -103 67 -147 56 -52 111 -67 183 -51 81 18 119 63 257 307 66 117 122
212 125 212 3 0 59 -95 125 -211 134 -236 152 -261 204 -287 80 -41 159 -34
225 21 56 46 79 99 74 172 -3 57 -12 75 -125 272 -67 115 -125 218 -129 227
-6 16 13 17 247 17 147 0 270 5 292 11 81 22 147 111 147 199 0 88 -66 177
-147 199 -22 6 -145 11 -292 11 -237 0 -253 1 -247 18 4 9 62 111 129 227 113
196 122 214 125 271 5 73 -18 126 -74 172 -66 55 -145 62 -225 21 -52 -26 -70
-51 -204 -287 -66 -116 -122 -211 -125 -211 -3 0 -59 95 -125 212 -128 227
-174 285 -242 305 -50 15 -78 15 -124 -2z"/>
</g>
</svg>
